Coordinates
version=1
nRows=6
nColumns=63
inDegrees=yes

Units are S.I. units (second, meters, Newtons, ...)
If the header above contains a line with 'inDegrees', this indicates whether rotational values are in degrees (yes) or radians (no).

endheader
time	pelvis_tilt	pelvis_list	pelvis_rotation	pelvis_tx	pelvis_ty	pelvis_tz	hip_flexion_r	hip_adduction_r	hip_rotation_r	knee_angle_r	knee_angle_r_beta	ankle_angle_r	subtalar_angle_r	mtp_angle_r	hip_flexion_l	hip_adduction_l	hip_rotation_l	knee_angle_l	knee_angle_l_beta	ankle_angle_l	subtalar_angle_l	mtp_angle_l	L5_S1_Flex_Ext	L5_S1_Lat_Bending	L5_S1_axial_rotation	L4_L5_Flex_Ext	L4_L5_Lat_Bending	L4_L5_axial_rotation	L3_L4_Flex_Ext	L3_L4_Lat_Bending	L3_L4_axial_rotation	L2_L3_Flex_Ext	L2_L3_Lat_Bending	L2_L3_axial_rotation	L1_L2_Flex_Ext	L1_L2_Lat_Bending	L1_L2_axial_rotation	L1_T12_Flex_Ext	L1_T12_Lat_Bending	L1_T12_axial_rotation	Abs_r3	Abs_r2	Abs_r1	Abs_t1	Abs_t2	neck_flexion	neck_bending	neck_rotation	arm_flex_r	arm_add_r	arm_rot_r	elbow_flex_r	pro_sup_r	wrist_flex_r	wrist_dev_r	arm_flex_l	arm_add_l	arm_rot_l	elbow_flex_l	pro_sup_l	wrist_flex_l	wrist_dev_l
      0.00800000	    -59.32991510	     -0.83909638	     -4.23885068	     -0.26347786	      1.09538199	     -0.02589832	    116.04040909	     -6.65570242	     -4.40882753	    111.64465294	      1.94856679	     21.50609655	      7.75280023	      0.00000000	     96.75145588	     -8.89183317	     -2.77052216	     50.41282999	      0.87986987	     10.23794505	      2.07474713	      0.00000000	     -0.10001511	      0.39464213	      0.29470532	     -0.18573805	      0.52487403	      0.31312440	     -0.16431482	      0.95953287	      0.31312440	     -0.11430727	      0.95953287	      0.25786715	     -0.09287403	      0.80475423	      0.23944807	     -0.05714863	      0.61130065	      0.22102899	     -0.71439790	      4.46427067	      1.63906256	      0.00000000	      0.00000000	     -0.00000000	      0.00000000	      0.00000001	     68.84781473	    -18.27835433	     32.68551728	     47.13704494	     52.09160963	      0.00000000	      5.44275391	     58.79780465	    -21.45424404	     12.87090778	     54.15333122	     52.49799314	      0.00000000	      5.44275391
      0.01700000	    -59.31156136	     -0.66837579	     -4.69666733	     -0.26322231	      1.09565737	     -0.02426845	    117.98106069	     -6.29497222	     -3.98035474	    113.01752212	      1.97252787	     20.86520719	      8.04557702	      0.00000000	     94.80405296	     -9.34900913	     -3.36178533	     48.45669212	      0.84572882	      8.02240651	      2.32464094	      0.00000000	     -0.09924313	      0.36113801	      0.49003128	     -0.18430442	      0.48031356	      0.52065824	     -0.16304654	      0.87807096	      0.52065824	     -0.11342497	      0.87807096	      0.42877737	     -0.09215717	      0.73643264	      0.39815042	     -0.05670752	      0.55940278	      0.36752346	     -0.70888375	      4.08526543	      2.72540699	      0.00000000	      0.00000000	     -0.00000000	      0.00000000	      0.00000001	     68.38214534	    -18.96500630	     32.29066039	     47.64489382	     52.03054006	      0.00000000	      5.43309650	     59.16533816	    -20.63299078	     12.83027026	     53.59895993	     52.47022958	      0.00000000	      5.43309650
      0.02500000	    -59.36189544	     -0.42128603	     -4.74012153	     -0.26343052	      1.09577304	     -0.02379710	    118.65974142	     -6.11899386	     -3.71833549	    113.24173393	      1.97644111	     21.17614597	      8.05214045	      0.00000000	     94.26169967	     -9.40824344	     -3.82747849	     47.89865841	      0.83598930	      7.53190910	      1.78722474	      0.00000000	     -0.09792017	      0.32832854	      0.50695205	     -0.18184755	      0.43667696	      0.53863656	     -0.16087305	      0.79829801	      0.53863656	     -0.11191297	      0.79829801	      0.44358305	     -0.09092867	      0.66952756	      0.41189854	     -0.05595159	      0.50858091	      0.38021404	     -0.69943400	      3.71411812	      2.81951523	      0.00000000	      0.00000000	     -0.00000000	      0.00000000	      0.00000001	     68.21309273	    -18.87964739	     31.79645221	     47.77885232	     51.95882648	      0.00000000	      5.41730100	     59.36932675	    -20.72823492	     13.17836940	     53.57882516	     52.47980945	      0.00000000	      5.41730100
      0.03300000	    -59.44980158	     -0.42252590	     -4.85589434	     -0.26373173	      1.09598194	     -0.02349840	    119.33980837	     -6.02912850	     -3.76655584	    113.39684337	      1.97914828	     21.46231631	      8.03156638	      0.00000000	     93.78150213	     -9.52892374	     -3.87765494	     47.40540368	      0.82738038	      7.29309404	      1.78547689	      0.00000000	     -0.09880506	      0.33241650	      0.53197659	     -0.18349088	      0.44211394	      0.56522512	     -0.16232684	      0.80823747	      0.56522512	     -0.11292431	      0.80823747	      0.46547951	     -0.09175038	      0.67786372	      0.43223098	     -0.05645721	      0.51491316	      0.39898244	     -0.70575469	      3.76036191	      2.95869418	      0.00000000	      0.00000000	     -0.00000000	      0.00000000	      0.00000001	     68.29070889	    -18.91457034	     31.80860113	     47.85398593	     51.95720385	      0.00000000	      5.41391423	     59.46845940	    -20.66810831	     13.16485613	     53.62485618	     52.47265641	      0.00000000	      5.41391423
      0.04200000	    -59.53219260	     -0.26163676	     -4.88553331	     -0.26402791	      1.09615044	     -0.02310954	    120.13111994	     -5.90883807	     -3.62366983	    113.57213904	      1.98220776	     22.00391122	      8.09043775	      0.00000000	     93.21883289	     -9.61635667	     -4.26127041	     46.90269156	      0.81860640	      7.04756354	      1.70562072	      0.00000000	     -0.09809069	      0.31356158	      0.53799191	     -0.18216423	      0.41703690	      0.57161641	     -0.16115320	      0.76239361	      0.57161641	     -0.11210785	      0.76239361	      0.47074292	     -0.09108702	      0.63941476	      0.43711843	     -0.05604902	      0.48570688	      0.40349393	     -0.70065202	      3.54707125	      2.99214961	      0.00000000	      0.00000000	     -0.00000000	      0.00000000	      0.00000001	     68.31740064	    -18.93722935	     31.87721412	     47.99107408	     51.95573946	      0.00000000	      5.40447176	     59.58313360	    -20.66909251	     13.12755242	     53.71243782	     52.45431245	      0.00000000	      5.40447176
      0.05000000	    -59.63483553	     -0.26182809	     -5.00810228	     -0.26428860	      1.09640421	     -0.02277042	    120.92181913	     -5.83632324	     -3.72975053	    113.65966175	      1.98373532	     22.33781419	      8.08192085	      0.00000000	     92.69241971	     -9.77331394	     -4.32370184	     46.44468610	      0.81061269	      6.91268775	      1.75067646	      0.00000000	     -0.09777418	      0.31888071	      0.55618502	     -0.18157643	      0.42411135	      0.59094658	     -0.16063320	      0.77532656	      0.59094658	     -0.11174611	      0.77532656	      0.48666189	     -0.09079310	      0.65026155	      0.45190033	     -0.05586817	      0.49394622	      0.41713876	     -0.69839120	      3.60724238	      3.09333421	      0.00000000	      0.00000000	     -0.00000000	      0.00000000	      0.00000001	     68.39828042	    -18.90328606	     31.89310477	     48.04092485	     51.94663739	      0.00000000	      5.40068154	     59.62343931	    -20.64435938	     13.11036628	     53.83904457	     52.43845070	      0.00000000	      5.40068154
